<svg xmlns="http://www.w3.org/2000/svg" width="1280" height="640" viewBox="0 0 1280 640" role="img" aria-labelledby="title description"><title id="title">27届秋招筛选站：四类行业与投递工作区</title><desc id="description">功能示意图。公共目录快照包括28819条岗位、203家公司或批次扫描记录。互联网、央国企、金融、银行；可筛选、核验、记录投递和保存个人进度。</desc><g font-family="Noto Sans CJK SC, PingFang SC, Microsoft YaHei, sans-serif"><rect x="0" y="0" width="1280" height="640" rx="24" fill="#f8f6ef" stroke="none"/><rect x="730" y="0" width="550" height="640" rx="24" fill="#e9efe7" stroke="none"/><circle cx="1175" cy="125" r="210" fill="#dee9df"/><circle cx="990" cy="586" r="160" fill="#e3ece2"/><text x="62" y="62" fill="#14786d" font-size="17" font-weight="700">CAMPUS JOBS / 2027</text><text x="62" y="145" fill="#192e40" font-size="68" font-weight="800">27届</text><text x="62" y="226" fill="#192e40" font-size="68" font-weight="800">秋招筛选站</text><text x="65" y="282" fill="#546573" font-size="25" font-weight="400">让机会可查，让投递有序。</text><text x="65" y="322" fill="#546573" font-size="18" font-weight="400">筛选岗位 · 核对来源 · 跟进投递 · 留下进度</text><rect x="65" y="369" width="132" height="84" rx="12" fill="#fff" stroke="#d8dfd6"/><g transform="translate(78,382) scale(0.65)" fill="none" stroke="#14786d" stroke-width="2.6" stroke-linecap="round" stroke-linejoin="round"><path d="m12 9-9 10 9 10M25 9l9 10-9 10M21 3l-6 32"/></g><text x="78" y="437" fill="#192e40" font-size="18" font-weight="600">互联网</text><rect x="215" y="369" width="132" height="84" rx="12" fill="#fff" stroke="#d8dfd6"/><g transform="translate(228,382) scale(0.65)" fill="none" stroke="#14786d" stroke-width="2.6" stroke-linecap="round" stroke-linejoin="round"><rect x="3" y="3" width="30" height="32" rx="2"/><path d="M11 9h2M23 9h2M11 17h2M23 17h2M11 25h2M23 25h2M17 35v-7"/></g><text x="228" y="437" fill="#192e40" font-size="18" font-weight="600">央国企</text><rect x="365" y="369" width="132" height="84" rx="12" fill="#fff" stroke="#d8dfd6"/><g transform="translate(378,382) scale(0.65)" fill="none" stroke="#14786d" stroke-width="2.6" stroke-linecap="round" stroke-linejoin="round"><path d="M3 3v32h32M10 26l8-10 7 4 10-14"/></g><text x="378" y="437" fill="#192e40" font-size="18" font-weight="600">金融</text><rect x="515" y="369" width="132" height="84" rx="12" fill="#fff" stroke="#d8dfd6"/><g transform="translate(528,382) scale(0.65)" fill="none" stroke="#14786d" stroke-width="2.6" stroke-linecap="round" stroke-linejoin="round"><path d="m2 10 17-8 17 8ZM6 14v15M15 14v15M24 14v15M33 14v15M1 35h36"/></g><text x="528" y="437" fill="#192e40" font-size="18" font-weight="600">银行</text><text x="65" y="506" fill="#14786d" font-size="36" font-weight="700">28,819</text><text x="65" y="538" fill="#546573" font-size="17" font-weight="400">已收录岗位</text><text x="278" y="506" fill="#14786d" font-size="36" font-weight="700">203</text><text x="278" y="538" fill="#546573" font-size="17" font-weight="400">公司 / 批次扫描记录</text><text x="544" y="506" fill="#14786d" font-size="36" font-weight="700">4</text><text x="544" y="538" fill="#546573" font-size="17" font-weight="400">行业</text><text x="65" y="592" fill="#546573" font-size="14" font-weight="400">公共目录快照：2026-10-02 · 覆盖范围见核验说明</text><rect x="787" y="83" width="420" height="416" rx="22" fill="#193f3d" stroke="none"/><circle cx="812" cy="108" r="4" fill="#a7c6bd"/><circle cx="828" cy="108" r="4" fill="#a7c6bd"/><circle cx="844" cy="108" r="4" fill="#a7c6bd"/><text x="1005" y="114" fill="#a7c6bd" font-size="14" font-weight="400">功能示意</text><text x="812" y="158" fill="#fff" font-size="22" font-weight="600">从“看到机会”到“已投递”</text><rect x="811" y="182" width="372" height="54" rx="10" fill="#fff" stroke="none"/><g transform="translate(827,195) scale(0.7)" fill="none" stroke="#14786d" stroke-width="2.6" stroke-linecap="round" stroke-linejoin="round"><circle cx="15" cy="15" r="10"/><path d="m23 23 9 9"/></g><text x="867" y="216" fill="#192e40" font-size="20" font-weight="600">产品 / 策略</text><rect x="811" y="254" width="372" height="139" rx="12" fill="#fff" stroke="none"/><text x="830" y="291" fill="#192e40" font-size="21" font-weight="600">某公司 · 2027 校招</text><rect x="830" y="307" width="119" height="34" rx="17" fill="#e5f1e9" stroke="none"/><text x="844" y="330" fill="#14786d" font-size="16" font-weight="500">来源已确认</text><rect x="958" y="307" width="119" height="34" rx="17" fill="#fbefd9" stroke="none"/><text x="972" y="330" fill="#c07826" font-size="16" font-weight="500">日期待确认</text><text x="830" y="376" fill="#546573" font-size="16" font-weight="400">收藏机会，再去官方入口投递。</text><rect x="811" y="411" width="372" height="61" rx="10" fill="#2c5850" stroke="none"/><g transform="translate(830,426) scale(0.65)" fill="none" stroke="#cce1d8" stroke-width="2.6" stroke-linecap="round" stroke-linejoin="round"><rect x="4" y="4" width="28" height="32" rx="4"/><path d="M12 12h16M12 20h16M12 28h12"/></g><text x="870" y="449" fill="#fff" font-size="21" font-weight="600">我的投递 → 我的待办</text><rect x="908" y="527" width="282" height="63" rx="14" fill="#fff" stroke="none"/><g transform="translate(925,542) scale(0.65)" fill="none" stroke="#14786d" stroke-width="2.6" stroke-linecap="round" stroke-linejoin="round"><path d="M10 30a9 9 0 0 1-1-18 12 12 0 0 1 23 0 9 9 0 1 1 2 18Z"/></g><text x="966" y="566" fill="#14786d" font-size="16" font-weight="600">默认游客保存 · 登录可选</text></g></svg>
